<?xml version="1.0" encoding="utf-8"?>
<!-- Generator: Adobe Illustrator 24.2.3, SVG Export Plug-In . SVG Version: 6.00 Build 0)  -->
<svg version="1.1" id="Layer_1" xmlns="http://www.w3.org/2000/svg" xmlns:xlink="http://www.w3.org/1999/xlink" x="0px" y="0px"
	 viewBox="0 0 512 512" style="enable-background:new 0 0 512 512;" xml:space="preserve">
<style type="text/css">
	.st0{fill:#CAD8DD;}
	.st1{fill:#44BC4F;}
	.st2{opacity:8.000000e-02;}
	.st3{fill:#17292D;}
</style>
<path class="st0" d="M435.1,446.8v0.4c0,1.5,0,3.1-0.1,4.5v0.3c-0.1,0.8-0.1,1.7-0.2,2.6c-0.4,4.2-1.3,8.4-2.6,12.5v0.1
	c-0.1,0.1-0.1,0.3-0.1,0.4c-8,25-30.9,44.4-59.8,44.4H139.8c-45.8,0-76.2-48.1-57.3-90.5L192,232.3V45.1
	c-20-4.1-30.5-16.9-23.4-28.6c1.9-3.2,5-6.1,9.1-8.4c7.2-4.2,17-6.6,27.1-6.6h102.4c21.2,0,38.4,10.1,38.4,22.5
	c0,6-4,11.7-11.3,15.9c-4,2.4-8.9,4.2-14.3,5.3v187.1l54.7,94.7l54.8,94.6c0.5,1.1,1,2.4,1.4,3.6c0.7,1.8,1.4,3.7,1.9,5.6v0.1
	c0.3,0.9,0.5,1.9,0.7,2.8s0.5,1.9,0.6,2.8c0.1,0.6,0.2,1.1,0.3,1.7C434.8,441,435.1,443.9,435.1,446.8z"/>
<path class="st1" d="M363.4,307.2H148.7L82.5,421.5C63.6,463.9,94,512,139.8,512h232.4c45.8,0,76.2-48.1,57.3-90.5L363.4,307.2z"/>
<g class="st2">
	<path class="st3" d="M435.1,447.1c0,1.7-0.1,3.3-0.1,4.9c-0.1,0.8-0.1,1.7-0.2,2.6c-0.2,1.7-0.5,3.4-0.8,5.1
		c-0.3,1.3-0.6,2.6-0.9,3.8s-0.6,2.4-1,3.6s-0.8,2.3-1.2,3.5c-0.3,0.8-0.6,1.7-1,2.4c-1.8,4.4-4.2,8.5-6.9,12.4
		c-0.2,0.3-0.4,0.6-0.6,0.8c-4.2,5.8-9.4,10.8-15.3,14.9L268.8,257.9V1.4h38.4c21.2,0,38.4,10.1,38.4,22.5c0,6-4,11.7-11.3,15.9
		c-4,2.4-8.9,4.2-14.3,5.3v187.1l54.7,94.7l54.8,94.6c0.5,1.1,1,2.4,1.4,3.6s0.8,2.4,1.2,3.6c0.2,0.7,0.5,1.3,0.6,2
		c0.3,0.9,0.5,1.9,0.7,2.8s0.5,1.9,0.6,2.8c0.1,0.6,0.2,1.1,0.3,1.7c0.4,2.3,0.6,4.6,0.7,6.9C435.1,445.7,435.1,446.4,435.1,447.1z"
		/>
</g>
</svg>
